<?xml version="1.0" encoding="utf-8"?>
<!-- Generator: Adobe Illustrator 24.0.1, SVG Export Plug-In . SVG Version: 6.00 Build 0)  -->
<svg version="1.1" id="Calque_1" xmlns="http://www.w3.org/2000/svg" xmlns:xlink="http://www.w3.org/1999/xlink" x="0px" y="0px"
	 viewBox="0 0 40 40" style="enable-background:new 0 0 40 40;" xml:space="preserve">
<style type="text/css">
	.st0{fill:#CA154F;}
</style>
<path class="st0" d="M23.2,39.7c-0.2,0-0.3,0.1-0.5,0.1C22.9,39.8,23.1,39.8,23.2,39.7z"/>
<path class="st0" d="M23.6,39.7c-0.1,0-0.2,0-0.2,0C23.5,39.7,23.5,39.7,23.6,39.7z"/>
<path class="st0" d="M22.3,39.9c-0.2,0-0.4,0-0.6,0.1C21.9,39.9,22.1,39.9,22.3,39.9z"/>
<path class="st0" d="M22.7,39.8c-0.1,0-0.2,0-0.3,0C22.5,39.8,22.6,39.8,22.7,39.8z"/>
<path class="st0" d="M24.2,39.6c-0.1,0-0.1,0-0.2,0C24,39.6,24.1,39.6,24.2,39.6z"/>
<path class="st0" d="M25.5,39.2c-0.1,0-0.1,0-0.2,0C25.4,39.3,25.5,39.2,25.5,39.2z"/>
<path class="st0" d="M25.1,39.3c-0.1,0-0.1,0-0.2,0C25,39.4,25,39.4,25.1,39.3z"/>
<path class="st0" d="M24.6,39.5c-0.1,0-0.1,0-0.2,0C24.4,39.5,24.5,39.5,24.6,39.5z"/>
<path class="st0" d="M21.7,39.9c-0.1,0-0.2,0-0.3,0C21.5,39.9,21.6,39.9,21.7,39.9z"/>
<path class="st0" d="M40,20C40,9,31,0,20,0S0,9,0,20s9,20,20,20c0.1,0,0.2,0,0.4,0V24.4h-4.3v-5h4.3v-3.7c0-4.3,2.6-6.6,6.4-6.6
	c1.8,0,3.4,0.1,3.9,0.2v4.5H28c-2.1,0-2.5,1-2.5,2.4v3.2h5l-0.6,5h-4.3v14.8C33.9,36.8,40,29.1,40,20z"/>
<path class="st0" d="M21.3,40c-0.2,0-0.4,0-0.6,0C20.9,40,21.1,40,21.3,40z"/>
<path class="st0" d="M20.7,40c-0.1,0-0.2,0-0.3,0C20.5,40,20.6,40,20.7,40z"/>
</svg>
