<svg width="40" height="40" viewBox="0 0 40 40" fill="none" xmlns="http://www.w3.org/2000/svg">
<path d="M23.2253 39.7402C23.0587 39.7674 22.8915 39.7924 22.7236 39.8153C22.8915 39.7924 23.0587 39.7674 23.2253 39.7402Z" fill="#CA154F"/>
<path d="M23.6247 39.6719C23.545 39.6865 23.4654 39.7 23.3857 39.7137C23.4654 39.7 23.545 39.6865 23.6247 39.6719Z" fill="#CA154F"/>
<path d="M22.2766 39.8701C22.0815 39.8921 21.8853 39.9116 21.6885 39.9281C21.8853 39.9116 22.0815 39.8921 22.2766 39.8701Z" fill="#CA154F"/>
<path d="M22.6599 39.8232C22.5662 39.8358 22.4719 39.8473 22.3779 39.8583C22.4719 39.8473 22.5662 39.8358 22.6599 39.8232Z" fill="#CA154F"/>
<path d="M24.1692 39.5635C24.099 39.5784 24.0285 39.5934 23.958 39.6077C24.0285 39.5934 24.099 39.5784 24.1692 39.5635Z" fill="#CA154F"/>
<path d="M25.5209 39.2275C25.4641 39.2437 25.4073 39.259 25.3506 39.2748C25.4073 39.259 25.4641 39.2437 25.5209 39.2275Z" fill="#CA154F"/>
<path d="M25.1113 39.3398C25.0497 39.356 24.9877 39.3725 24.9258 39.3881C24.9877 39.3725 25.0497 39.3563 25.1113 39.3398Z" fill="#CA154F"/>
<path d="M24.577 39.4727C24.5117 39.4879 24.4458 39.5023 24.3799 39.5169C24.4458 39.5023 24.5117 39.4879 24.577 39.4727Z" fill="#CA154F"/>
<path d="M21.6814 39.9287C21.5761 39.9376 21.4708 39.9455 21.3652 39.9525C21.4708 39.9455 21.5761 39.9376 21.6814 39.9287Z" fill="#CA154F"/>
<path d="M40 20C40 8.95599 31.044 0 20 0C8.95599 0 0 8.95599 0 20C0 31.044 8.95599 40 20 40C20.1175 40 20.2344 39.9976 20.3516 39.9954V24.4263H16.0547V19.4186H20.3516V15.7336C20.3516 11.46 22.9605 9.13391 26.7728 9.13391C28.5983 9.13391 30.1675 9.27002 30.625 9.33075V13.7973H27.9962C25.9222 13.7973 25.5206 14.783 25.5206 16.2292V19.4186H30.4797L29.8334 24.4263H25.5206V39.2273C33.8803 36.8307 40 29.129 40 20Z" fill="white"/>
<path d="M21.3212 39.9561C21.113 39.9695 20.904 39.9802 20.6943 39.9872C20.904 39.9802 21.113 39.9695 21.3212 39.9561Z" fill="#CA154F"/>
<path d="M20.6846 39.9873C20.5741 39.991 20.4633 39.9937 20.3525 39.9955C20.4633 39.9937 20.5741 39.991 20.6846 39.9873Z" fill="#CA154F"/>
</svg>
